:version 1.10
:name ASF
:units
  mass 1
  length 1
  angle deg
:documentation
  ASF file generated by Kaydara
:root
  axis xyz
  order  tx ty tz rx ry rz
  position 0 0 0
  orientation 0 0 0
:bonedata
  begin
    id 1
    name lfemurDummy
    direction 0.61522 -0.761478 0.204097
    length 5.68318
    axis 0 -0 0 xyz
  end
  begin
    id 2
    name lfemur
    direction 0.34202 -0.939693 -5.84747e-008
    length 16.9147
    axis 0 -0 20 xyz
    dof rx ry rz
    limits( -inf , inf )
( -inf , inf )
( -inf , inf )

  end
  begin
    id 3
    name ltibia
    direction 0.34202 -0.939693 1.20839e-009
    length 18.0532
    axis 0 -0 20 xyz
    dof rz ry rx
    limits( -inf , inf )
( -inf , inf )
( -inf , inf )

  end
  begin
    id 4
    name lfoot
    direction 0.0841971 -0.23133 0.969225
    length 5.23822
    axis -90 7.62852e-016 20 xyz
    dof ry rx rz
    limits( -inf , inf )
( -inf , inf )
( -inf , inf )

  end
  begin
    id 5
    name ltoes
    direction 0 0 0
    length 0
    axis 0 0 0 xyz
    dof rz ry rx
    limits( -inf , inf )
( -inf , inf )
( -inf , inf )

  end
  begin
    id 6
    name rfemurDummy
    direction -0.625247 -0.75382 0.202044
    length 5.74091
    axis 0 -0 0 xyz
  end
  begin
    id 7
    name rfemur
    direction -0.34202 -0.939693 -1.47013e-008
    length 16.4922
    axis 0 -0 -20 xyz
    dof rx ry rz
    limits( -inf , inf )
( -inf , inf )
( -inf , inf )

  end
  begin
    id 8
    name rtibia
    direction -0.34202 -0.939693 -7.74345e-010
    length 18.2421
    axis 0 -0 -20 xyz
    dof rz ry rx
    limits( -inf , inf )
( -inf , inf )
( -inf , inf )

  end
  begin
    id 9
    name rfoot
    direction -0.124331 -0.341598 0.931586
    length 5.45787
    axis -90 -7.62852e-016 -20 xyz
    dof ry rx rz
    limits( -inf , inf )
( -inf , inf )
( -inf , inf )

  end
  begin
    id 10
    name rtoes
    direction 0 0 0
    length 0
    axis 0 0 0 xyz
    dof rz ry rx
    limits( -inf , inf )
( -inf , inf )
( -inf , inf )

  end
  begin
    id 11
    name lowerbackDummy
    direction 0 0 0
    length 0
    axis 0 -0 0 xyz
  end
  begin
    id 12
    name lowerback
    direction -0.0218484 0.994884 -0.0986304
    length 4.45607
    axis 0 -0 0 xyz
    dof rx ry rz
    limits( -inf , inf )
( -inf , inf )
( -inf , inf )

  end
  begin
    id 13
    name upperback
    direction -0.00973057 0.999717 -0.0217111
    length 4.47449
    axis 0 -0 0 xyz
    dof rx ry rz
    limits( -inf , inf )
( -inf , inf )
( -inf , inf )

  end
  begin
    id 14
    name thorax
    direction -0.000928171 0.999699 0.0245198
    length 4.50973
    axis 0 -0 0 xyz
    dof rx ry rz
    limits( -inf , inf )
( -inf , inf )
( -inf , inf )

  end
  begin
    id 15
    name rclavicle
    direction -0.9009 0.425937 -0.0834055
    length 7.28587
    axis 0 -0 0 xyz
    dof rx ry rz
    limits( -inf , inf )
( -inf , inf )
( -inf , inf )

  end
  begin
    id 16
    name rhumerus
    direction -1 -2.23604e-007 -1.42637e-007
    length 13.5704
    axis 180 30 90 xyz
    dof rx ry rz
    limits( -inf , inf )
( -inf , inf )
( -inf , inf )

  end
  begin
    id 17
    name rradius
    direction -1 5.68281e-008 -4.4952e-007
    length 8.06782
    axis 180 30 90 xyz
    dof rz ry rx
    limits( -inf , inf )
( -inf , inf )
( -inf , inf )

  end
  begin
    id 18
    name rwrist
    direction -1 1.51393e-007 1.38143e-007
    length 4.03391
    axis -90 -90 0 xyz
    dof rz rx ry
    limits( -inf , inf )
( -inf , inf )
( -inf , inf )

  end
  begin
    id 19
    name rthumb
    direction 0 0 0
    length 0
    axis 0 0 0 xyz
    dof ry rx rz
    limits( -inf , inf )
( -inf , inf )
( -inf , inf )

  end
  begin
    id 20
    name rhand
    direction -1 -3.34077e-007 -5.59631e-007
    length 1.29744
    axis -90 -90 0 xyz
    dof ry rx rz
    limits( -inf , inf )
( -inf , inf )
( -inf , inf )

  end
  begin
    id 21
    name rfingers
    direction 0 0 0
    length 0
    axis 0 0 0 xyz
    dof rz ry rx
    limits( -inf , inf )
( -inf , inf )
( -inf , inf )

  end
  begin
    id 22
    name lclavicle
    direction 0.940017 0.332249 -0.0773232
    length 8.29589
    axis 0 -0 0 xyz
    dof rx ry rz
    limits( -inf , inf )
( -inf , inf )
( -inf , inf )

  end
  begin
    id 23
    name lhumerus
    direction 1 7.41158e-008 -1.44768e-008
    length 12.0042
    axis 180 -30 -90 xyz
    dof rx ry rz
    limits( -inf , inf )
( -inf , inf )
( -inf , inf )

  end
  begin
    id 24
    name lradius
    direction 1 -1.32972e-007 3.10821e-007
    length 8.1902
    axis 180 -30 -90 xyz
    dof rz ry rx
    limits( -inf , inf )
( -inf , inf )
( -inf , inf )

  end
  begin
    id 25
    name lwrist
    direction 1 3.08957e-007 4.01394e-007
    length 4.09509
    axis -90 90 0 xyz
    dof rz rx ry
    limits( -inf , inf )
( -inf , inf )
( -inf , inf )

  end
  begin
    id 26
    name lthumb
    direction 0 0 0
    length 0
    axis 0 0 0 xyz
    dof ry rx rz
    limits( -inf , inf )
( -inf , inf )
( -inf , inf )

  end
  begin
    id 27
    name lhand
    direction 1 -1.64125e-007 -6.99514e-007
    length 1.37229
    axis -90 90 0 xyz
    dof ry rx rz
    limits( -inf , inf )
( -inf , inf )
( -inf , inf )

  end
  begin
    id 28
    name lfingers
    direction 0 0 0
    length 0
    axis 0 0 0 xyz
    dof rz ry rx
    limits( -inf , inf )
( -inf , inf )
( -inf , inf )

  end
  begin
    id 29
    name lowerneck
    direction -0.030798 0.998024 0.0547665
    length 3.93918
    axis 0 -0 0 xyz
    dof rx ry rz
    limits( -inf , inf )
( -inf , inf )
( -inf , inf )

  end
  begin
    id 30
    name upperneck
    direction 0.0531588 0.996611 -0.0627736
    length 3.95491
    axis 0 -0 0 xyz
    dof rx ry rz
    limits( -inf , inf )
( -inf , inf )
( -inf , inf )

  end
  begin
    id 31
    name head
    direction 0 0 0
    length 0
    axis 0 0 0 xyz
    dof rx ry rz
    limits( -inf , inf )
( -inf , inf )
( -inf , inf )

  end
:hierarchy
  begin
    root lfemurDummy rfemurDummy lowerbackDummy
    lfemurDummy lfemur
    lfemur ltibia
    ltibia lfoot
    lfoot ltoes
    rfemurDummy rfemur
    rfemur rtibia
    rtibia rfoot
    rfoot rtoes
    lowerbackDummy lowerback
    lowerback upperback
    upperback thorax
    thorax rclavicle lclavicle lowerneck
    rclavicle rhumerus
    rhumerus rradius
    rradius rwrist
    rwrist rthumb rhand
    rhand rfingers
    lclavicle lhumerus
    lhumerus lradius
    lradius lwrist
    lwrist lthumb lhand
    lhand lfingers
    lowerneck upperneck
    upperneck head
  end

:SAMPLES-PER-SECOND 30
:FULLY-SPECIFIED
:DEGREES
28
root  -4.609666659 37.46488977 7.210400349 21.31097412 -68.47000122 -22.21600342
lowerback  13.00749969 0.2028910071 -4.653600216
upperback  4.063680172 -0.4716550112 -0.4132539928
thorax  -2.984469891 -0.291298002 2.268599987
lowerneck  -9.933759689 6.503769875 -7.764369965
upperneck  13.4296999 8.680379868 9.036470413
head  4.885029793 4.472270012 4.646440029
lclavicle  0 -9.442270133e-015 7.951389973e-016
lhumerus  31.00440025 -7.361559868 44.01269913
lradius  -6.342106671e-032 -3.4737042e-031 79.65319824
lwrist  -7.062250077e-031 -0 6.067230225
lhand  -1.496451383e-031 -27.76390076 20.11240005
lfingers  90 7.125020027 -90
lthumb  89.89689403 5.08795885 91.16245106
rclavicle  0 -9.442270133e-015 7.951389973e-016
rhumerus  -47.77270126 25.33729935 -100.0169983
rradius  5.53436409e-032 3.487485079e-031 80.98280334
rwrist  7.062250077e-031 -1.765562519e-031 -11.16600037
rhand  -7.920061211e-032 -33.2840004 9.303460121
rfingers  -90 -7.125020027 -90
rthumb  -92.93752616 -24.25625642 -97.11982154
rfemur  8.83082962 19.52179909 19.96190071
rtibia  -0 0 47.27420044
rfoot  -4.414013799e-032 -0.3998779953 5.752359867
rtoes  5.373923086 19.29304026 -105.8922705
lfemur  -49.8742981 3.456670046 4.330470085
ltibia  -0 0 60.26290131
lfoot  -0 7.276110172 -13.25319958
ltoes  -4.250644065 -19.5611806 -102.515957
29
root  -4.817222235 37.30822285 7.250066442 20.11602783 -66.15200043 -21.20300293
lowerback  13.22000027 0.3361200094 -4.412909985
upperback  3.953350067 -0.2892960012 -0.7496349812
thorax  -3.233119965 -0.1911790073 1.754809976
lowerneck  -10.56949997 5.591619968 -8.771499634
upperneck  13.55519962 7.47397995 10.3263998
head  5.039150238 3.937949896 5.191269875
lclavicle  0 -9.442270133e-015 7.951389973e-016
lhumerus  34.02360153 -8.242429733 45.32569885
lradius  -6.814763209e-032 -3.464741558e-031 78.87259674
lwrist  -7.062250077e-031 -3.531125038e-031 0.4099560082
lhand  -1.496451383e-031 -27.76390076 20.11240005
lfingers  90 7.125020027 -90
lthumb  89.89689403 5.08795885 91.16245106
rclavicle  0 -9.442270133e-015 7.951389973e-016
rhumerus  -47.34669876 26.10379982 -100.2440033
rradius  5.01529775e-032 3.495327155e-031 81.83460236
rwrist  7.062250077e-031 1.765562519e-031 -9.792860031
rhand  -7.920061211e-032 -33.2840004 9.303460121
rfingers  -90 -7.125020027 -90
rthumb  -92.93752616 -24.25625642 -97.11982154
rfemur  9.644260406 17.79380035 21.09119987
rtibia  -0 0 47.69950104
rfoot  -4.415684113e-032 -1.625910044 4.138750076
rtoes  5.373923086 19.29304026 -105.8922705
lfemur  -50.94120026 2.718679905 3.778120041
ltibia  -0 0 60.22230148
lfoot  -0 7.278369904 -13.23069954
ltoes  -4.250644065 -19.5611806 -102.515957
30
root  -5.030399983 37.14133435 7.292600316 20.4119873 -64.63700104 -21.35998535
lowerback  12.78689957 0.7405639887 -4.206510067
upperback  3.896199942 0.2913230062 -0.9183239937
thorax  -3.092149973 0.09680429846 1.372210026
lowerneck  -10.91870022 4.776490211 -9.79102993
upperneck  13.08170033 6.500050068 11.05389977
head  4.987659931 3.48074007 5.539619923
lclavicle  0 -9.442270133e-015 7.951389973e-016
lhumerus  35.98040009 -9.280039787 46.87390137
lradius  -5.876414657e-032 -3.481884769e-031 80.42040253
lwrist  -1.059337512e-030 -3.531125038e-031 -2.211339951
lhand  -1.496451383e-031 -27.76390076 20.11240005
lfingers  90 7.125020027 -90
lthumb  89.89689403 5.08795885 91.16245106
rclavicle  0 -9.442270133e-015 7.951389973e-016
rhumerus  -46.22460175 26.96549988 -99.57730103
rradius  4.262188954e-032 3.505307617e-031 83.06729889
rwrist  7.062250077e-031 -0 -9.216710091
rhand  -7.920061211e-032 -33.2840004 9.303460121
rfingers  -90 -7.125020027 -90
rthumb  -92.93752616 -24.25625642 -97.11982154
rfemur  9.720179558 16.43190002 21.97509956
rtibia  -0 0 48.20949936
rfoot  -6.629798793e-032 -2.975699902 2.482270002
rtoes  5.373923086 19.29304026 -105.8922705
lfemur  -51.87049866 2.615839958 3.475950003
ltibia  -0 0 60.09379959
lfoot  -0 7.953479767 -13.58269978
ltoes  -4.250644065 -19.5611806 -102.515957
31
root  -5.254244617 36.97977742 7.369577603 21.01300049 -63.61299896 -21.58197021
lowerback  11.99040031 1.20468998 -3.947809935
upperback  3.78572011 0.9756379724 -1.109709978
thorax  -2.803750038 0.4363929927 0.9325720072
lowerneck  -10.93150043 4.180990219 -10.81000042
upperneck  12.28240013 5.870500088 11.4144001
head  4.7709198 3.163160086 5.764070034
lclavicle  0 -9.442270133e-015 7.951389973e-016
lhumerus  36.86840057 -10.6427002 48.53659821
lradius  -3.968992858e-032 -3.508748351e-031 83.5463028
lwrist  -1.412450015e-030 -0 -0.3927559853
lhand  -1.496451383e-031 -27.76390076 20.11240005
lfingers  90 7.125020027 -90
lthumb  89.89689403 5.08795885 91.16245106
rclavicle  0 -9.442270133e-015 7.951389973e-016
rhumerus  -44.76100159 27.72599983 -98.19069672
rradius  3.193782762e-032 3.516652038e-031 84.81069946
rwrist  7.062250077e-031 -0 -9.437000275
rhand  -7.920061211e-032 -33.2840004 9.303460121
rfingers  -90 -7.125020027 -90
rthumb  -92.93752616 -24.25625642 -97.11982154
rfemur  9.450169563 15.18249989 22.43720055
rtibia  -0 0 48.61249924
rfoot  -4.427644948e-032 -4.514770031 1.291360021
rtoes  5.373923086 19.29304026 -105.8922705
lfemur  -52.66389847 2.706749916 3.019530058
ltibia  -0 0 59.97029877
lfoot  -0 8.841589928 -14.28740025
ltoes  -4.250644065 -19.5611806 -102.515957
